<svg xmlns="http://www.w3.org/2000/svg"
    width="566.93335"
    height="302.36"
    viewbox="0 0 566.93335 302.36">
  <path
      d="m67.684,122.445l-7.147,-0l0,-28.672l7.147,-0z"
      fill="#007d4e"
      stroke="#00000000"
      fill-rule="evenOdd"
      />
  <path
      d="m108.619,97.801l0,24.644l-5.175,-0l-13.62,-15.788l0,15.788l-6.133,-0L83.691,97.801l5.623,-0l13.16,15.063L102.473,97.801Z"
      fill="#007d4e"
      stroke="#00000000"
      fill-rule="evenOdd"
      />
  <path
      d="M139.548,97.801L139.548,102.316L128.723,102.316L128.723,107.819L139.548,107.819l0,4.517l-10.825,-0l0,10.109l-6.143,-0L122.58,97.801Z"
      fill="#007d4e"
      stroke="#00000000"
      fill-rule="evenOdd"
      />
<clip-path d="M0,-0L566.933,-0L566.933,302.36L0,302.36Z M 0,0"/>
<path
        d="m165.91,117.646c2.325,-0 4.201,-0.693 5.628,-2.073 1.42,-1.384 2.133,-3.195 2.133,-5.441 0,-2.259 -0.713,-4.076 -2.133,-5.448C170.112,103.305 168.236,102.62 165.91,102.62 163.566,102.62 161.682,103.305 160.254,104.684 158.829,106.056 158.11,107.873 158.11,110.132 158.11,112.378 158.829,114.189 160.254,115.573 161.682,116.953 163.566,117.646 165.91,117.646m0,-20.165c4.196,-0 7.597,1.271 10.193,3.807 2.6,2.535 3.903,5.477 3.903,8.844C180.006,113.54 178.685,116.501 176.058,119.008 173.416,121.512 170.033,122.766 165.91,122.766c-4.173,-0 -7.575,-1.249 -10.196,-3.741 -2.624,-2.493 -3.937,-5.461 -3.937,-8.893 0,-3.373 1.305,-6.328 3.908,-8.856 2.609,-2.528 6.015,-3.795 10.225,-3.795"
        fill="#007d4e"
        stroke="#00000000"
        fill-rule="evenOdd"
        />
<path
        d="m199.024,102.316l0,5.612l3.247,-0c1.039,-0 1.856,-0.247 2.457,-0.733 0.608,-0.491 0.907,-1.181 0.907,-2.089C205.635,103.249 204.468,102.316 202.126,102.316ZM192.887,97.801l11.005,-0c2.388,-0 4.327,0.691 5.821,2.071 1.495,1.384 2.24,3.06 2.24,5.021 0,2.716 -1.409,4.728 -4.235,6.033 1.247,0.555 2.428,2.065 3.536,4.535 1.112,2.468 2.187,4.8 3.221,6.984L207.719,122.445c-0.397,-0.813 -1.095,-2.36 -2.089,-4.643C204.638,115.528 203.783,114.057 203.071,113.415 202.362,112.769 201.598,112.445 200.79,112.445L199.024,112.445l0,10l-6.137,-0z"
        fill="#007d4e"
        stroke="#00000000"
        fill-rule="evenOdd"
        />
<path
        d="m239.025,106.941 l7.925,-9.14l5.337,-0l0,24.644l-6.133,-0L246.155,107.064L239.503,114.792l-0.933,-0l-6.649,-7.728L231.92,122.445L225.777,122.445L225.777,97.801l5.349,-0z"
        fill="#007d4e"
        stroke="#00000000"
        fill-rule="evenOdd"
        />
<path
        d="M283.316,90.141 L277.354,95.416L274.67,95.416L277.354,90.141ZM275.133,118.55 L271.158,108.97 267.546,118.55zM274.64,103.076 L285.572,127.72L284.934,127.72l-2.027,-4.871l-11.027,-0l-1.828,4.871l-6.512,-0l9.931,-24.644z"
        fill="#007d4e"
        stroke="#00000000"
        fill-rule="evenOdd"
        />
<path
        d="m325.079,97.801l0,4.515l-8.923,-0l0,20.129l-6.143,-0L310.013,102.316L301.092,102.316L301.092,97.801Z"
        fill="#007d4e"
        stroke="#00000000"
        fill-rule="evenOdd"
        />
<path
        d="m343.599,122.445l-6.141,-0l0,-24.644l6.141,-0z"
        fill="#007d4e"
        stroke="#00000000"
        fill-rule="evenOdd"
        />
<path
        d="m380.679,114.93l0,5.377c-3.079,1.637 -6.305,2.459 -9.684,2.459 -4.371,-0 -7.855,-1.212 -10.449,-3.627 -2.592,-2.42 -3.888,-5.395 -3.888,-8.933 0,-3.543 1.363,-6.548 4.096,-9.015 2.744,-2.469 6.309,-3.711 10.719,-3.711 3.516,-0 6.491,0.729 8.929,2.175L380.402,105.139c-2.989,-1.68 -5.813,-2.52 -8.491,-2.52 -2.616,-0 -4.764,0.703 -6.423,2.108 -1.667,1.408 -2.499,3.195 -2.499,5.368 0,2.187 0.816,3.993 2.46,5.419 1.64,1.42 3.741,2.132 6.305,2.132 1.271,-0 2.493,-0.169 3.669,-0.5C376.603,116.81 378.357,116.067 380.679,114.93"
        fill="#007d4e"
        stroke="#00000000"
        fill-rule="evenOdd"
        />
<path
        d="M408.914,113.275 L404.939,103.696 401.328,113.275ZM400.834,97.802 L411.767,122.446L412.755,122.446L410.727,117.574l-11.028,-0l-1.831,4.872l-6.507,-0l9.927,-24.644z"
        fill="#007d4e"
        stroke="#00000000"
        fill-rule="evenOdd"
        />
<path
        d="M59.075,136.029L505.188,136.029L505.188,149.455L59.075,149.455Z"
        fill="#007d4e"
        stroke="#00000000"
        fill-rule="evenOdd"
        />
<path
        d="m485.503,165.877 l3.287,5.456 -12.612,8.095 -3.988,-4.927z"
        fill="#007d4e"
        stroke="#00000000"
        fill-rule="nonZero"
        />
<path
        d="M284.138,181.163C283.881,183.278 284.184,185.055 284.824,185.135 285.46,185.213 286.186,183.563 286.45,181.446 286.702,179.331 286.404,177.555 285.762,177.478 285.125,177.399 284.4,179.049 284.138,181.163m-15.549,2.547c0,0.801 0.648,1.451 1.452,1.451 0.801,-0 1.453,-0.649 1.453,-1.451 0,-0.801 -0.652,-1.451 -1.453,-1.451 -0.804,-0 -1.452,0.649 -1.452,1.451m-0.071,5.868c1.817,3.225 6.684,2.756 10.968,0.057 -4.635,-27.981 21.351,-27.276 8.857,0.705 -1.231,1.581 2.989,1.993 5.456,-0.117l0,5.631c-4.341,2.932 -8.976,1.467 -10.793,-0.469 -10.265,6.921 -23.993,2.699 -21.707,-10.091 -9.561,-18.068 6.747,-26.573 16.777,-22.231L278.077,170.454c-7.921,-3.579 -14.137,1.936 -12.083,8.504 10.441,-7.801 17.657,11.44 2.524,10.62"
        fill="#007d4e"
        stroke="#00000000"
        fill-rule="nonZero"
        />
<path
        d="m331.745,181.305c0,0.588 0.473,1.065 1.065,1.065 0.585,-0 1.065,-0.477 1.065,-1.065 0,-0.587 -0.48,-1.063 -1.065,-1.063C332.218,180.242 331.745,180.718 331.745,181.305m-12.721,-10.971c-24.875,-5.98 -18.069,32.852 0.707,18.305 -1.411,-6.571 6.921,-8.976 7.212,-4.341 -0.116,2.229 0.059,5.868 2.76,5.983 2.577,0.175 4.28,-2.875 1.405,-3.224 -11.205,-3.523 1.115,-20.416 7.92,-6.809 2.816,-0 5.335,0.881 6.981,3.229 0.171,-1.173 2.58,-2.583 4.459,-2.111l0,5.863c-1.879,0.12 -3.344,0.997 -3.283,3.052l0,5.868L342.018,196.149l0,-5.636c0,-1.58 -1.116,-2.637 -3.459,-2.58 0,4.753 -7.217,11.145 -15.079,6.337 -30.853,19.828 -39.185,-35.315 -4.457,-30.504z"
        fill="#007d4e"
        stroke="#00000000"
        fill-rule="nonZero"
        />
<path
        d="M368.296,181.509C367.588,182.521 367.407,183.619 367.892,183.962 368.384,184.302 369.349,183.759 370.065,182.747 370.773,181.731 370.949,180.633 370.464,180.293 369.973,179.949 369.007,180.495 368.296,181.509M360.673,168.693 L359.619,182.303l1.76,-0c8.8,-17.951 26.277,-1.056 7.391,7.156 2.52,3.401 6.277,1.936 9.268,-0.233l0,6.569c-3.755,3.755 -13.433,3.579 -16.367,-4.987 -0.937,-2.464 -2.465,-1.937 -2.404,-1.116l0,7.1l-5.691,-0l0,-9.388l-1.349,-0.056l0,-5.751l1.932,-0l0.825,-12.844z"
        fill="#007d4e"
        stroke="#00000000"
        fill-rule="nonZero"
        />
<path
        d="m389.55,195.871c-0.124,3.617 0.291,6.565 0.925,6.588 0.641,0.027 1.263,-2.891 1.388,-6.505C391.994,192.338 391.573,189.387 390.935,189.363 390.297,189.343 389.678,192.254 389.55,195.871m4.913,-42.077 l1.76,21.467c2.932,-0.349 7.743,0.355 10.091,5.633 2.577,-3.519 12.316,-5.748 13.373,7.275L419.687,195.561L413.117,195.561L413.117,188.051C413.057,183.942 408.365,183.942 408.307,187.933L408.307,197.203L402.091,197.203L401.503,186.177C401.03,182.77 395.751,180.778 397.042,185.589 397.277,187.583 400.683,211.225 390.237,212.221 380.617,211.75 381.379,187.349 390.358,178.311l-1.939,-24.343z"
        fill="#007d4e"
        stroke="#00000000"
        fill-rule="nonZero"
        />
<path
        d="m464.612,185.529c0,1.285 0.684,2.323 1.536,2.323 0.843,-0 1.536,-1.037 1.536,-2.323 0,-1.281 -0.693,-2.321 -1.536,-2.321C465.296,183.208 464.612,184.248 464.612,185.529m-15.06,-5.553c-0.283,1.997 -0.016,3.684 0.601,3.772 0.612,0.084 1.333,-1.461 1.619,-3.459 0.277,-1.996 0.008,-3.687 -0.607,-3.772 -0.611,-0.085 -1.336,1.463 -1.613,3.459m-16.761,22.827c-0.056,0.867 0.487,1.612 1.217,1.663 0.728,0.052 1.373,-0.612 1.432,-1.479 0.061,-0.867 -0.483,-1.615 -1.211,-1.665 -0.732,-0.051 -1.373,0.611 -1.439,1.481m1.737,-8.121l0,-2.052c-5.22,3.755 -13.729,4.34 -13.492,-4.987 1.057,-6.395 8.036,-12.084 18.831,-12.615L439.867,181.541c-8.331,0.527 -12.612,4.047 -11.616,7.273 0.821,0.879 5.337,-1.524 6.981,-6.101l6.16,-0l0,8.507c0,-0 2.52,-0.821 3.755,-1.349 -4.343,-11.616 1.291,-21.356 6.92,-20.473 9.211,1.525 6.983,13.259 1.407,20.651 0.943,1.407 3.228,2.287 5.809,1.111 -6.044,-18.007 19.065,-17.361 13.023,-2.639 5.34,-1.407 15.901,-11.029 22.408,-10.616 12.144,-0.233 9.035,20.003 -7.683,20.824l0,-6.571c0.939,-0.235 5.104,-1.524 7.272,-3.751 1.409,-1.528 0.176,-5.811 -4.223,-3.055L475.416,194.385C472.864,195.824 468.495,196.618 466.38,194.974c-4.517,3.556 -15.104,4.965 -18.303,-0.469l-6.685,4.635c0.587,4.633 -0.469,12.376 -8.331,11.789 -8.505,-0.704 -8.74,-12.377 1.467,-16.248"
        fill="#007d4e"
        stroke="#00000000"
        fill-rule="nonZero"
        />
</svg>
