<svg xmlns="http://www.w3.org/2000/svg"
    height="24"
    width="24"
    viewBox= "0 0 24 24">
    <path fill="@color/white"
       d="
        M12 20C7.59 20 4 16.41 4 12S7.59 4 12 4 20 7.59 20 12 16.41 20 12 20Z" />
    <path fill="@color/ieci_secondary_green"
        stroke-width="0.1"
        stroke="@color/grey"
        d="
        M11,15H13V17H11V15M11,7H13V13H11V7M12,2C6.47,2 2,6.5 2,12A10,10 0 0,0 12,22A10,10 0 0,0 22,12A10,10 0 0,0 12,2M12,20A8,8 0 0,1 4,12A8,8 0 0,1 12,4A8,8 0 0,1 20,12A8,8 0 0,1 12,20Z" />
</svg>